<?xml version="1.0" encoding="UTF-8" standalone="no"?>
<!DOCTYPE svg PUBLIC "-//W3C//DTD SVG 1.1//EN"
 "http://www.w3.org/Graphics/SVG/1.1/DTD/svg11.dtd">
<!-- Generated by graphviz version 2.38.0 (20140413.2041)
 -->
<!-- Title: LockStep Pages: 1 -->
<svg width="582pt" height="533pt"
 viewBox="0.00 0.00 581.53 533.00" xmlns="http://www.w3.org/2000/svg" xmlns:xlink="http://www.w3.org/1999/xlink">
<g id="graph0" class="graph" transform="scale(1 1) rotate(0) translate(4 529)">
<title>LockStep</title>
<polygon fill="gray" stroke="none" points="-4,4 -4,-529 577.532,-529 577.532,4 -4,4"/>
<g id="clust1" class="cluster"><title>clusterLocal</title>
<polygon fill="royalblue" stroke="black" points="9.53154,-114 9.53154,-517 165.532,-517 165.532,-114 9.53154,-114"/>
<text text-anchor="middle" x="87.5315" y="-501.8" font-family="Microsoft YaHei" font-size="14.00">Local</text>
<text text-anchor="middle" x="87.5315" y="-486.8" font-family="Microsoft YaHei" font-size="14.00">本机</text>
</g>
<g id="clust2" class="cluster"><title>clusterRemote</title>
<polygon fill="#ff8247" stroke="black" points="409.532,-191 409.532,-516 565.532,-516 565.532,-191 409.532,-191"/>
<text text-anchor="middle" x="487.532" y="-500.8" font-family="Microsoft YaHei" font-size="14.00">Remote</text>
<text text-anchor="middle" x="487.532" y="-485.8" font-family="Microsoft YaHei" font-size="14.00">远端（其他玩家）</text>
</g>
<g id="clust3" class="cluster"><title>clusterServer</title>
<polygon fill="#7ccd7c" stroke="black" points="173.532,-8 173.532,-405 401.532,-405 401.532,-8 173.532,-8"/>
<text text-anchor="middle" x="287.532" y="-389.8" font-family="Microsoft YaHei" font-size="14.00">Server</text>
<text text-anchor="middle" x="287.532" y="-374.8" font-family="Microsoft YaHei" font-size="14.00">服务器</text>
</g>
<!-- LocalInputRequest -->
<g id="node1" class="node"><title>LocalInputRequest</title>
<polygon fill="skyblue" stroke="skyblue" points="73.0315,-432.5 73.0315,-470.5 146.032,-470.5 146.032,-432.5 73.0315,-432.5"/>
<text text-anchor="middle" x="109.532" y="-455.3" font-family="Microsoft YaHei" font-size="14.00">Input</text>
<text text-anchor="middle" x="109.532" y="-440.3" font-family="Microsoft YaHei" font-size="14.00">玩家输入</text>
</g>
<!-- LocalInput1 -->
<g id="node2" class="node"><title>LocalInput1</title>
<polygon fill="skyblue" stroke="skyblue" points="51.0315,-198.5 51.0315,-236.5 124.032,-236.5 124.032,-198.5 51.0315,-198.5"/>
<text text-anchor="middle" x="87.5315" y="-221.3" font-family="Microsoft YaHei" font-size="14.00">Input</text>
<text text-anchor="middle" x="87.5315" y="-206.3" font-family="Microsoft YaHei" font-size="14.00">玩家输入</text>
</g>
<!-- LocalInputRequest&#45;&gt;LocalInput1 -->
<g id="edge1" class="edge"><title>LocalInputRequest&#45;&gt;LocalInput1</title>
<path fill="none" stroke="black" d="M107.805,-432.295C103.982,-391.976 94.7773,-294.91 90.2037,-246.68"/>
<polygon fill="black" stroke="black" points="93.6783,-246.245 89.2498,-236.62 86.7096,-246.906 93.6783,-246.245"/>
</g>
<!-- WaitNextStep0 -->
<g id="node6" class="node"><title>WaitNextStep0</title>
<polygon fill="skyblue" stroke="skyblue" points="198.532,-274.5 198.532,-358.5 340.532,-358.5 340.532,-274.5 198.532,-274.5"/>
<text text-anchor="middle" x="269.532" y="-343.3" font-family="Microsoft YaHei" font-size="14.00">Wait for next Step</text>
<text text-anchor="middle" x="269.532" y="-328.3" font-family="Microsoft YaHei" font-size="14.00"> 等待下一个Step</text>
<text text-anchor="middle" x="269.532" y="-297.3" font-family="Microsoft YaHei" font-size="14.00">Gather actions</text>
<text text-anchor="middle" x="269.532" y="-282.3" font-family="Microsoft YaHei" font-size="14.00">收集玩家行为</text>
</g>
<!-- LocalInputRequest&#45;&gt;WaitNextStep0 -->
<g id="edge10" class="edge"><title>LocalInputRequest&#45;&gt;WaitNextStep0</title>
<path fill="none" stroke="black" d="M134.354,-432.287C145.279,-424.115 158.182,-414.25 169.532,-405 184.912,-392.465 201.245,-378.476 216.154,-365.426"/>
<polygon fill="black" stroke="black" points="218.608,-367.929 223.809,-358.699 213.987,-362.671 218.608,-367.929"/>
</g>
<!-- LocalGetStepAdvance -->
<g id="node3" class="node"><title>LocalGetStepAdvance</title>
<polygon fill="skyblue" stroke="skyblue" points="17.5315,-122.5 17.5315,-160.5 157.532,-160.5 157.532,-122.5 17.5315,-122.5"/>
<text text-anchor="middle" x="87.5315" y="-145.3" font-family="Microsoft YaHei" font-size="14.00">Get Step Advance</text>
<text text-anchor="middle" x="87.5315" y="-130.3" font-family="Microsoft YaHei" font-size="14.00">获取到Step通知</text>
</g>
<!-- LocalInput1&#45;&gt;LocalGetStepAdvance -->
<g id="edge2" class="edge"><title>LocalInput1&#45;&gt;LocalGetStepAdvance</title>
<path fill="none" stroke="black" d="M87.5315,-198.208C87.5315,-189.964 87.5315,-180.038 87.5315,-170.862"/>
<polygon fill="black" stroke="black" points="91.0316,-170.582 87.5315,-160.582 84.0316,-170.582 91.0316,-170.582"/>
</g>
<!-- WaitNextStep1 -->
<g id="node9" class="node"><title>WaitNextStep1</title>
<polygon fill="skyblue" stroke="skyblue" points="185.532,-16.5 185.532,-70.5 327.532,-70.5 327.532,-16.5 185.532,-16.5"/>
<text text-anchor="middle" x="256.532" y="-55.3" font-family="Microsoft YaHei" font-size="14.00">Wait for next Step</text>
<text text-anchor="middle" x="256.532" y="-24.3" font-family="Microsoft YaHei" font-size="14.00"> Gather actions</text>
</g>
<!-- LocalInput1&#45;&gt;WaitNextStep1 -->
<g id="edge12" class="edge"><title>LocalInput1&#45;&gt;WaitNextStep1</title>
<path fill="none" stroke="black" d="M50.9493,-200.573C34.8517,-191.49 17.5734,-178.402 8.53154,-161 -1.09944,-142.464 -4.08986,-130.645 8.53154,-114 28.8553,-87.1977 110.948,-67.8941 175.186,-56.5326"/>
<polygon fill="black" stroke="black" points="176.073,-59.9311 185.33,-54.7773 174.88,-53.0336 176.073,-59.9311"/>
</g>
<!-- RemoteInputRequest -->
<g id="node4" class="node"><title>RemoteInputRequest</title>
<polygon fill="skyblue" stroke="skyblue" points="438.532,-433.5 438.532,-469.5 492.532,-469.5 492.532,-433.5 438.532,-433.5"/>
<text text-anchor="middle" x="465.532" y="-447.8" font-family="Microsoft YaHei" font-size="14.00">Input</text>
</g>
<!-- RemoteGetStepAdvance -->
<g id="node5" class="node"><title>RemoteGetStepAdvance</title>
<polygon fill="skyblue" stroke="skyblue" points="417.532,-199.5 417.532,-235.5 557.532,-235.5 557.532,-199.5 417.532,-199.5"/>
<text text-anchor="middle" x="487.532" y="-213.8" font-family="Microsoft YaHei" font-size="14.00">Get Step Advance</text>
</g>
<!-- RemoteInputRequest&#45;&gt;RemoteGetStepAdvance -->
<g id="edge3" class="edge"><title>RemoteInputRequest&#45;&gt;RemoteGetStepAdvance</title>
<path fill="none" stroke="black" d="M467.149,-433.44C470.932,-393.553 480.379,-293.927 484.96,-245.617"/>
<polygon fill="black" stroke="black" points="488.452,-245.87 485.911,-235.585 481.483,-245.209 488.452,-245.87"/>
</g>
<!-- RemoteInputRequest&#45;&gt;WaitNextStep0 -->
<g id="edge11" class="edge"><title>RemoteInputRequest&#45;&gt;WaitNextStep0</title>
<path fill="none" stroke="black" d="M440.309,-433.385C414.657,-415.978 373.763,-388.229 338.423,-364.248"/>
<polygon fill="black" stroke="black" points="340.282,-361.279 330.042,-358.561 336.351,-367.072 340.282,-361.279"/>
</g>
<!-- DoStepAdvance -->
<g id="node7" class="node"><title>DoStepAdvance</title>
<polygon fill="skyblue" stroke="skyblue" points="206.532,-198.5 206.532,-236.5 332.532,-236.5 332.532,-198.5 206.532,-198.5"/>
<text text-anchor="middle" x="269.532" y="-221.3" font-family="Microsoft YaHei" font-size="14.00">DoStepAdvance</text>
<text text-anchor="middle" x="269.532" y="-206.3" font-family="Microsoft YaHei" font-size="14.00">触发Step通知</text>
</g>
<!-- WaitNextStep0&#45;&gt;DoStepAdvance -->
<g id="edge4" class="edge"><title>WaitNextStep0&#45;&gt;DoStepAdvance</title>
<path fill="none" stroke="black" d="M269.532,-274.363C269.532,-265.069 269.532,-255.405 269.532,-246.78"/>
<polygon fill="black" stroke="black" points="273.032,-246.518 269.532,-236.518 266.032,-246.518 273.032,-246.518"/>
</g>
<!-- DoStepAdvance&#45;&gt;LocalGetStepAdvance -->
<g id="edge8" class="edge"><title>DoStepAdvance&#45;&gt;LocalGetStepAdvance</title>
<path fill="none" stroke="black" d="M225.009,-198.398C199.797,-188.146 168.078,-175.25 141.463,-164.428"/>
<polygon fill="black" stroke="black" points="142.491,-161.068 131.909,-160.544 139.854,-167.552 142.491,-161.068"/>
</g>
<!-- DoStepAdvance&#45;&gt;RemoteGetStepAdvance -->
<g id="edge9" class="edge"><title>DoStepAdvance&#45;&gt;RemoteGetStepAdvance</title>
<path fill="none" stroke="black" d="M332.547,-217.5C357.378,-217.5 382.21,-217.5 407.041,-217.5"/>
<polygon fill="black" stroke="black" points="407.304,-221 417.304,-217.5 407.304,-214 407.304,-221"/>
</g>
<!-- CanNextFrameStart -->
<g id="node8" class="node"><title>CanNextFrameStart</title>
<polygon fill="skyblue" stroke="skyblue" points="182.032,-122.5 182.032,-160.5 357.032,-160.5 357.032,-122.5 182.032,-122.5"/>
<text text-anchor="middle" x="269.532" y="-145.3" font-family="Microsoft YaHei" font-size="14.00">Can next step start?</text>
<text text-anchor="middle" x="269.532" y="-130.3" font-family="Microsoft YaHei" font-size="14.00">是否可以处理下个Step？</text>
</g>
<!-- DoStepAdvance&#45;&gt;CanNextFrameStart -->
<g id="edge5" class="edge"><title>DoStepAdvance&#45;&gt;CanNextFrameStart</title>
<path fill="none" stroke="black" d="M269.532,-198.208C269.532,-189.964 269.532,-180.038 269.532,-170.862"/>
<polygon fill="black" stroke="black" points="273.032,-170.582 269.532,-160.582 266.032,-170.582 273.032,-170.582"/>
</g>
<!-- CanNextFrameStart&#45;&gt;CanNextFrameStart -->
<g id="edge7" class="edge"><title>CanNextFrameStart&#45;&gt;CanNextFrameStart</title>
<path fill="none" stroke="black" d="M357.25,-147.664C367.99,-146.561 375.032,-144.506 375.032,-141.5 375.032,-139.574 372.142,-138.039 367.241,-136.894"/>
<polygon fill="black" stroke="black" points="367.67,-133.419 357.25,-135.336 366.591,-140.335 367.67,-133.419"/>
<text text-anchor="middle" x="384.032" y="-137.8" font-family="Times New Roman,serif" font-size="14.00">No</text>
</g>
<!-- CanNextFrameStart&#45;&gt;WaitNextStep1 -->
<g id="edge6" class="edge"><title>CanNextFrameStart&#45;&gt;WaitNextStep1</title>
<path fill="none" stroke="black" d="M267.086,-122.443C265.5,-110.73 263.378,-95.0559 261.452,-80.8358"/>
<polygon fill="black" stroke="black" points="264.905,-80.2556 260.095,-70.8157 257.969,-81.195 264.905,-80.2556"/>
<text text-anchor="middle" x="276.532" y="-92.8" font-family="Times New Roman,serif" font-size="14.00">Yes</text>
</g>
</g>
</svg>
