<?xml version="1.0" encoding="UTF-8" standalone="no"?>
<!DOCTYPE svg PUBLIC "-//W3C//DTD SVG 1.1//EN"
 "http://www.w3.org/Graphics/SVG/1.1/DTD/svg11.dtd">
<!-- Generated by graphviz version 2.38.0 (20140413.2041)
 -->
<!-- Title: LockStep Pages: 1 -->
<svg width="421pt" height="171pt"
 viewBox="0.00 0.00 421.00 171.00" xmlns="http://www.w3.org/2000/svg" xmlns:xlink="http://www.w3.org/1999/xlink">
<g id="graph0" class="graph" transform="scale(1 1) rotate(0) translate(4 167)">
<title>LockStep</title>
<polygon fill="gray" stroke="none" points="-4,4 -4,-167 417,-167 417,4 -4,4"/>
<g id="clust1" class="cluster"><title>clusterClient</title>
<polygon fill="royalblue" stroke="black" points="8,-18 8,-151 196,-151 196,-18 8,-18"/>
<text text-anchor="middle" x="102" y="-135.8" font-family="Microsoft YaHei" font-size="14.00">Client</text>
</g>
<g id="clust2" class="cluster"><title>clusterServer</title>
<polygon fill="#7ccd7c" stroke="black" points="216,-8 216,-155 405,-155 405,-8 216,-8"/>
<text text-anchor="middle" x="310.5" y="-139.8" font-family="Microsoft YaHei" font-size="14.00">Client</text>
</g>
<!-- Client -->
<g id="node1" class="node"><title>Client</title>
<polygon fill="none" stroke="black" points="16,-27 16,-119 188,-119 188,-27 16,-27"/>
<text text-anchor="middle" x="102" y="-103.8" font-family="Microsoft YaHei" font-size="14.00">ClientLockStep</text>
<polyline fill="none" stroke="black" points="16,-96 188,-96 "/>
<text text-anchor="middle" x="102" y="-80.8" font-family="Microsoft YaHei" font-size="14.00"> </text>
<polyline fill="none" stroke="black" points="16,-73 188,-73 "/>
<text text-anchor="middle" x="102" y="-57.8" font-family="Microsoft YaHei" font-size="14.00">+InputHandlers</text>
<polyline fill="none" stroke="black" points="16,-50 188,-50 "/>
<text text-anchor="middle" x="102" y="-34.8" font-family="Microsoft YaHei" font-size="14.00">+StepAdvanceHandler</text>
</g>
<!-- Server -->
<g id="node2" class="node"><title>Server</title>
<polygon fill="none" stroke="black" points="224,-16.5 224,-123.5 397,-123.5 397,-16.5 224,-16.5"/>
<text text-anchor="middle" x="310.5" y="-108.3" font-family="Microsoft YaHei" font-size="14.00">ServerLockStep</text>
<polyline fill="none" stroke="black" points="224,-100.5 397,-100.5 "/>
<text text-anchor="middle" x="310.5" y="-85.3" font-family="Microsoft YaHei" font-size="14.00"> </text>
<polyline fill="none" stroke="black" points="224,-77.5 397,-77.5 "/>
<text text-anchor="middle" x="310.5" y="-62.3" font-family="Microsoft YaHei" font-size="14.00">+GatherInputs</text>
<polyline fill="none" stroke="black" points="224,-54.5 397,-54.5 "/>
<text text-anchor="middle" x="310.5" y="-39.3" font-family="Microsoft YaHei" font-size="14.00">+StepAdvance</text>
<text text-anchor="middle" x="310.5" y="-24.3" font-family="Microsoft YaHei" font-size="14.00"> Trigger and Broadcast</text>
</g>
<!-- Client&#45;&gt;Server -->
<g id="edge1" class="edge"><title>Client:f0&#45;&gt;Server:f0</title>
<path fill="none" stroke="black" d="M189,-61C200.055,-61 204.821,-63.6965 212.535,-65.1291"/>
<polygon fill="black" stroke="black" points="212.233,-68.6159 222.5,-66 212.843,-61.6425 212.233,-68.6159"/>
</g>
<!-- Server&#45;&gt;Client -->
<g id="edge2" class="edge"><title>Server:f1&#45;&gt;Client:f1</title>
<path fill="none" stroke="black" d="M222.5,-35C211.756,-35 206.873,-36.5498 199.425,-37.4216"/>
<polygon fill="black" stroke="black" points="198.791,-33.9513 189,-38 199.179,-40.9406 198.791,-33.9513"/>
</g>
</g>
</svg>
