<?xml version="1.0" encoding="UTF-8" standalone="no"?>
<!DOCTYPE svg PUBLIC "-//W3C//DTD SVG 1.1//EN"
 "http://www.w3.org/Graphics/SVG/1.1/DTD/svg11.dtd">
<!-- Generated by graphviz version 2.38.0 (20140413.2041)
 -->
<!-- Title: GameFramework Pages: 1 -->
<svg width="1345pt" height="358pt"
 viewBox="0.00 0.00 1345.00 358.00" xmlns="http://www.w3.org/2000/svg" xmlns:xlink="http://www.w3.org/1999/xlink">
<g id="graph0" class="graph" transform="scale(1 1) rotate(0) translate(4 354)">
<title>GameFramework</title>
<polygon fill="gray" stroke="none" points="-4,4 -4,-354 1341,-354 1341,4 -4,4"/>
<g id="clust1" class="cluster"><title>clusterDedicateServer</title>
<polygon fill="#7ccd7c" stroke="black" points="8,-225 8,-342 1329,-342 1329,-225 8,-225"/>
<text text-anchor="middle" x="668.5" y="-326.8" font-family="Microsoft YaHei" font-size="14.00">Server</text>
</g>
<g id="clust2" class="cluster"><title>clusterPlayer0</title>
<polygon fill="royalblue" stroke="black" points="645,-233 645,-311 1102,-311 1102,-233 645,-233"/>
<text text-anchor="middle" x="873.5" y="-295.8" font-family="Microsoft YaHei" font-size="14.00">Player 0</text>
</g>
<g id="clust3" class="cluster"><title>clusterPlayer1</title>
<polygon fill="#ff8247" stroke="black" points="16,-233 16,-311 473,-311 473,-233 16,-233"/>
<text text-anchor="middle" x="244.5" y="-295.8" font-family="Microsoft YaHei" font-size="14.00">Player 1</text>
</g>
<g id="clust4" class="cluster"><title>clusterClient0</title>
<polygon fill="royalblue" stroke="black" points="145,-8 145,-123 677,-123 677,-8 145,-8"/>
<text text-anchor="middle" x="411" y="-107.8" font-family="Microsoft YaHei" font-size="14.00">Client 0</text>
</g>
<g id="clust5" class="cluster"><title>clusterC0Player0</title>
<polygon fill="royalblue" stroke="black" points="285,-16 285,-92 567,-92 567,-16 285,-16"/>
<text text-anchor="middle" x="426" y="-76.8" font-family="Microsoft YaHei" font-size="14.00">Client Player 0</text>
</g>
<g id="clust6" class="cluster"><title>clusterC0Player1</title>
<polygon fill="#ff8247" stroke="black" points="153,-16 153,-92 277,-92 277,-16 153,-16"/>
<text text-anchor="middle" x="215" y="-76.8" font-family="Microsoft YaHei" font-size="14.00">Client Player 1</text>
</g>
<g id="clust7" class="cluster"><title>clusterClient1</title>
<polygon fill="#ff8247" stroke="black" points="685,-8 685,-123 1217,-123 1217,-8 685,-8"/>
<text text-anchor="middle" x="951" y="-107.8" font-family="Microsoft YaHei" font-size="14.00">Client 1</text>
</g>
<g id="clust8" class="cluster"><title>clusterC1Player0</title>
<polygon fill="royalblue" stroke="black" points="983,-16 983,-92 1107,-92 1107,-16 983,-16"/>
<text text-anchor="middle" x="1045" y="-76.8" font-family="Microsoft YaHei" font-size="14.00">Client Player 0</text>
</g>
<g id="clust9" class="cluster"><title>clusterC1Player1</title>
<polygon fill="#ff8247" stroke="black" points="693,-16 693,-92 975,-92 975,-16 693,-16"/>
<text text-anchor="middle" x="834" y="-76.8" font-family="Microsoft YaHei" font-size="14.00">Client Player 1</text>
</g>
<!-- nGM -->
<g id="node1" class="node"><title>nGM</title>
<polygon fill="skyblue" stroke="skyblue" points="483,-241.5 483,-279.5 635,-279.5 635,-241.5 483,-241.5"/>
<text text-anchor="middle" x="559" y="-264.3" font-family="Microsoft YaHei" font-size="14.00">GameMode</text>
<text text-anchor="middle" x="559" y="-249.3" font-family="Microsoft YaHei" font-size="14.00"> ** Only in server **</text>
</g>
<!-- nPC0 -->
<g id="node2" class="node"><title>nPC0</title>
<polygon fill="skyblue" stroke="skyblue" points="653.5,-241.5 653.5,-279.5 872.5,-279.5 872.5,-241.5 653.5,-241.5"/>
<text text-anchor="middle" x="763" y="-264.3" font-family="Microsoft YaHei" font-size="14.00">PlayerController 0</text>
<text text-anchor="middle" x="763" y="-249.3" font-family="Microsoft YaHei" font-size="14.00"> ** Server and owner client.**</text>
</g>
<!-- nC0PC0 -->
<g id="node7" class="node"><title>nC0PC0</title>
<polygon fill="skyblue" stroke="skyblue" points="293,-24.5 293,-60.5 433,-60.5 433,-24.5 293,-24.5"/>
<text text-anchor="middle" x="363" y="-38.8" font-family="Microsoft YaHei" font-size="14.00">PlayerController 0</text>
</g>
<!-- nPC0&#45;&#45;nC0PC0 -->
<g id="edge1" class="edge"><title>nPC0&#45;&#45;nC0PC0</title>
<path fill="none" stroke="black" d="M729.584,-241.455C653.633,-200.442 468.883,-100.677 394.65,-60.5912"/>
</g>
<!-- nPS0 -->
<g id="node3" class="node"><title>nPS0</title>
<polygon fill="skyblue" stroke="skyblue" points="890.5,-241.5 890.5,-279.5 1093.5,-279.5 1093.5,-241.5 890.5,-241.5"/>
<text text-anchor="middle" x="992" y="-264.3" font-family="Microsoft YaHei" font-size="14.00">PlayerState 0</text>
<text text-anchor="middle" x="992" y="-249.3" font-family="Microsoft YaHei" font-size="14.00">** Server and ALL clients.**</text>
</g>
<!-- nC0PS0 -->
<g id="node8" class="node"><title>nC0PS0</title>
<polygon fill="skyblue" stroke="skyblue" points="451.5,-24.5 451.5,-60.5 558.5,-60.5 558.5,-24.5 451.5,-24.5"/>
<text text-anchor="middle" x="505" y="-38.8" font-family="Microsoft YaHei" font-size="14.00">PlayerState 0</text>
</g>
<!-- nPS0&#45;&#45;nC0PS0 -->
<g id="edge2" class="edge"><title>nPS0&#45;&#45;nC0PS0</title>
<path fill="none" stroke="black" d="M951.316,-241.455C858.846,-200.442 633.912,-100.677 543.534,-60.5912"/>
</g>
<!-- nC1PS0 -->
<g id="node12" class="node"><title>nC1PS0</title>
<polygon fill="skyblue" stroke="skyblue" points="991.5,-24.5 991.5,-60.5 1098.5,-60.5 1098.5,-24.5 991.5,-24.5"/>
<text text-anchor="middle" x="1045" y="-38.8" font-family="Microsoft YaHei" font-size="14.00">PlayerState 0</text>
</g>
<!-- nPS0&#45;&#45;nC1PS0 -->
<g id="edge6" class="edge"><title>nPS0&#45;&#45;nC1PS0</title>
<path fill="none" stroke="black" d="M996.428,-241.455C1006.48,-200.493 1030.91,-100.923 1040.77,-60.7401"/>
</g>
<!-- nGS -->
<g id="node4" class="node"><title>nGS</title>
<polygon fill="skyblue" stroke="skyblue" points="1111.5,-241.5 1111.5,-279.5 1320.5,-279.5 1320.5,-241.5 1111.5,-241.5"/>
<text text-anchor="middle" x="1216" y="-264.3" font-family="Microsoft YaHei" font-size="14.00">GameState</text>
<text text-anchor="middle" x="1216" y="-249.3" font-family="Microsoft YaHei" font-size="14.00"> ** Server and ALL clients **</text>
</g>
<!-- nC0GS -->
<g id="node10" class="node"><title>nC0GS</title>
<polygon fill="skyblue" stroke="skyblue" points="577,-24.5 577,-60.5 669,-60.5 669,-24.5 577,-24.5"/>
<text text-anchor="middle" x="623" y="-38.8" font-family="Microsoft YaHei" font-size="14.00">GameState</text>
</g>
<!-- nGS&#45;&#45;nC0GS -->
<g id="edge4" class="edge"><title>nGS&#45;&#45;nC0GS</title>
<path fill="none" stroke="black" d="M1166.46,-241.455C1053.59,-200.34 778.616,-100.183 669.108,-60.295"/>
</g>
<!-- nC1GS -->
<g id="node11" class="node"><title>nC1GS</title>
<polygon fill="skyblue" stroke="skyblue" points="1117,-24.5 1117,-60.5 1209,-60.5 1209,-24.5 1117,-24.5"/>
<text text-anchor="middle" x="1163" y="-38.8" font-family="Microsoft YaHei" font-size="14.00">GameState</text>
</g>
<!-- nGS&#45;&#45;nC1GS -->
<g id="edge8" class="edge"><title>nGS&#45;&#45;nC1GS</title>
<path fill="none" stroke="black" d="M1211.57,-241.455C1201.52,-200.493 1177.09,-100.923 1167.23,-60.7401"/>
</g>
<!-- nPC1 -->
<g id="node5" class="node"><title>nPC1</title>
<polygon fill="skyblue" stroke="skyblue" points="245.5,-241.5 245.5,-279.5 464.5,-279.5 464.5,-241.5 245.5,-241.5"/>
<text text-anchor="middle" x="355" y="-264.3" font-family="Microsoft YaHei" font-size="14.00">PlayerController 1</text>
<text text-anchor="middle" x="355" y="-249.3" font-family="Microsoft YaHei" font-size="14.00"> ** Server and owner client.**</text>
</g>
<!-- nC1PC1 -->
<g id="node13" class="node"><title>nC1PC1</title>
<polygon fill="skyblue" stroke="skyblue" points="827,-24.5 827,-60.5 967,-60.5 967,-24.5 827,-24.5"/>
<text text-anchor="middle" x="897" y="-38.8" font-family="Microsoft YaHei" font-size="14.00">PlayerController 1</text>
</g>
<!-- nPC1&#45;&#45;nC1PC1 -->
<g id="edge5" class="edge"><title>nPC1&#45;&#45;nC1PC1</title>
<path fill="none" stroke="black" d="M400.278,-241.455C503.192,-200.442 753.529,-100.677 854.114,-60.5912"/>
</g>
<!-- nPS1 -->
<g id="node6" class="node"><title>nPS1</title>
<polygon fill="skyblue" stroke="skyblue" points="24.5,-241.5 24.5,-279.5 227.5,-279.5 227.5,-241.5 24.5,-241.5"/>
<text text-anchor="middle" x="126" y="-264.3" font-family="Microsoft YaHei" font-size="14.00">PlayerState 1</text>
<text text-anchor="middle" x="126" y="-249.3" font-family="Microsoft YaHei" font-size="14.00">** Server and ALL clients.**</text>
</g>
<!-- nC0PS1 -->
<g id="node9" class="node"><title>nC0PS1</title>
<polygon fill="skyblue" stroke="skyblue" points="161.5,-24.5 161.5,-60.5 268.5,-60.5 268.5,-24.5 161.5,-24.5"/>
<text text-anchor="middle" x="215" y="-38.8" font-family="Microsoft YaHei" font-size="14.00">PlayerState 1</text>
</g>
<!-- nPS1&#45;&#45;nC0PS1 -->
<g id="edge3" class="edge"><title>nPS1&#45;&#45;nC0PS1</title>
<path fill="none" stroke="black" d="M133.435,-241.455C150.313,-200.493 191.339,-100.923 207.896,-60.7401"/>
</g>
<!-- nC1PS1 -->
<g id="node14" class="node"><title>nC1PS1</title>
<polygon fill="skyblue" stroke="skyblue" points="701.5,-24.5 701.5,-60.5 808.5,-60.5 808.5,-24.5 701.5,-24.5"/>
<text text-anchor="middle" x="755" y="-38.8" font-family="Microsoft YaHei" font-size="14.00">PlayerState 1</text>
</g>
<!-- nPS1&#45;&#45;nC1PS1 -->
<g id="edge7" class="edge"><title>nPS1&#45;&#45;nC1PS1</title>
<path fill="none" stroke="black" d="M178.546,-241.455C297.979,-200.442 588.499,-100.677 705.23,-60.5912"/>
</g>
</g>
</svg>
