<?xml version="1.0" encoding="UTF-8" standalone="no"?>
<!DOCTYPE svg PUBLIC "-//W3C//DTD SVG 1.1//EN"
 "http://www.w3.org/Graphics/SVG/1.1/DTD/svg11.dtd">
<!-- Generated by graphviz version 2.38.0 (20140413.2041)
 -->
<!-- Title: GameFramework Pages: 1 -->
<svg width="1219pt" height="358pt"
 viewBox="0.00 0.00 1219.00 358.00" xmlns="http://www.w3.org/2000/svg" xmlns:xlink="http://www.w3.org/1999/xlink">
<g id="graph0" class="graph" transform="scale(1 1) rotate(0) translate(4 354)">
<title>GameFramework</title>
<polygon fill="gray" stroke="none" points="-4,4 -4,-354 1215,-354 1215,4 -4,4"/>
<g id="clust1" class="cluster"><title>clusterHostClient</title>
<polygon fill="#7ccd7c" stroke="black" points="8,-225 8,-342 1203,-342 1203,-225 8,-225"/>
<text text-anchor="middle" x="605.5" y="-326.8" font-family="Microsoft YaHei" font-size="14.00">Host Client</text>
</g>
<g id="clust3" class="cluster"><title>clusterPlayer1</title>
<polygon fill="#ff8247" stroke="black" points="758,-233 758,-311 1195,-311 1195,-233 758,-233"/>
<text text-anchor="middle" x="976.5" y="-295.8" font-family="Microsoft YaHei" font-size="14.00">Player 1</text>
</g>
<g id="clust2" class="cluster"><title>clusterPlayer0</title>
<polygon fill="royalblue" stroke="black" points="382,-233 382,-311 750,-311 750,-233 382,-233"/>
<text text-anchor="middle" x="566" y="-295.8" font-family="Microsoft YaHei" font-size="14.00">Host Player</text>
</g>
<g id="clust4" class="cluster"><title>clusterClient1</title>
<polygon fill="#ff8247" stroke="black" points="415,-8 415,-123 991,-123 991,-8 415,-8"/>
<text text-anchor="middle" x="703" y="-107.8" font-family="Microsoft YaHei" font-size="14.00">Client 1</text>
</g>
<g id="clust6" class="cluster"><title>clusterC1Player1</title>
<polygon fill="#ff8247" stroke="black" points="701,-16 701,-92 983,-92 983,-16 701,-16"/>
<text text-anchor="middle" x="842" y="-76.8" font-family="Microsoft YaHei" font-size="14.00">Client Player 1</text>
</g>
<g id="clust5" class="cluster"><title>clusterC1Player0</title>
<polygon fill="royalblue" stroke="black" points="523,-16 523,-92 693,-92 693,-16 523,-16"/>
<text text-anchor="middle" x="608" y="-76.8" font-family="Microsoft YaHei" font-size="14.00">Host Player in Client 1</text>
</g>
<!-- nGM -->
<g id="node1" class="node"><title>nGM</title>
<polygon fill="skyblue" stroke="skyblue" points="232,-241.5 232,-279.5 372,-279.5 372,-241.5 232,-241.5"/>
<text text-anchor="middle" x="302" y="-264.3" font-family="Microsoft YaHei" font-size="14.00">GameMode</text>
<text text-anchor="middle" x="302" y="-249.3" font-family="Microsoft YaHei" font-size="14.00"> ** Only in host **</text>
</g>
<!-- nPC0 -->
<g id="node2" class="node"><title>nPC0</title>
<polygon fill="skyblue" stroke="skyblue" points="602,-241.5 602,-279.5 742,-279.5 742,-241.5 602,-241.5"/>
<text text-anchor="middle" x="672" y="-264.3" font-family="Microsoft YaHei" font-size="14.00">PlayerController</text>
<text text-anchor="middle" x="672" y="-249.3" font-family="Microsoft YaHei" font-size="14.00"> ** Only in host.**</text>
</g>
<!-- nPS0 -->
<g id="node3" class="node"><title>nPS0</title>
<polygon fill="skyblue" stroke="skyblue" points="390.5,-241.5 390.5,-279.5 583.5,-279.5 583.5,-241.5 390.5,-241.5"/>
<text text-anchor="middle" x="487" y="-264.3" font-family="Microsoft YaHei" font-size="14.00">PlayerState</text>
<text text-anchor="middle" x="487" y="-249.3" font-family="Microsoft YaHei" font-size="14.00">** Host and ALL clients.**</text>
</g>
<!-- nC1PS0 -->
<g id="node8" class="node"><title>nC1PS0</title>
<polygon fill="skyblue" stroke="skyblue" points="533.5,-24.5 533.5,-60.5 640.5,-60.5 640.5,-24.5 533.5,-24.5"/>
<text text-anchor="middle" x="587" y="-38.8" font-family="Microsoft YaHei" font-size="14.00">PlayerState 0</text>
</g>
<!-- nPS0&#45;&#45;nC1PS0 -->
<g id="edge2" class="edge"><title>nPS0&#45;&#45;nC1PS0</title>
<path fill="none" stroke="black" d="M495.354,-241.455C514.318,-200.493 560.415,-100.923 579.018,-60.7401"/>
</g>
<!-- nGS -->
<g id="node4" class="node"><title>nGS</title>
<polygon fill="skyblue" stroke="skyblue" points="16,-241.5 16,-279.5 214,-279.5 214,-241.5 16,-241.5"/>
<text text-anchor="middle" x="115" y="-264.3" font-family="Microsoft YaHei" font-size="14.00">GameState</text>
<text text-anchor="middle" x="115" y="-249.3" font-family="Microsoft YaHei" font-size="14.00"> ** Host and ALL clients **</text>
</g>
<!-- nC1GS -->
<g id="node7" class="node"><title>nC1GS</title>
<polygon fill="skyblue" stroke="skyblue" points="423,-24.5 423,-60.5 515,-60.5 515,-24.5 423,-24.5"/>
<text text-anchor="middle" x="469" y="-38.8" font-family="Microsoft YaHei" font-size="14.00">GameState</text>
</g>
<!-- nGS&#45;&#45;nC1GS -->
<g id="edge4" class="edge"><title>nGS&#45;&#45;nC1GS</title>
<path fill="none" stroke="black" d="M144.573,-241.455C211.707,-200.493 374.89,-100.923 440.745,-60.7401"/>
</g>
<!-- nPC1 -->
<g id="node5" class="node"><title>nPC1</title>
<polygon fill="skyblue" stroke="skyblue" points="977.5,-241.5 977.5,-279.5 1186.5,-279.5 1186.5,-241.5 977.5,-241.5"/>
<text text-anchor="middle" x="1082" y="-264.3" font-family="Microsoft YaHei" font-size="14.00">PlayerController 1</text>
<text text-anchor="middle" x="1082" y="-249.3" font-family="Microsoft YaHei" font-size="14.00"> ** Host and owner client.**</text>
</g>
<!-- nC1PC1 -->
<g id="node9" class="node"><title>nC1PC1</title>
<polygon fill="skyblue" stroke="skyblue" points="835,-24.5 835,-60.5 975,-60.5 975,-24.5 835,-24.5"/>
<text text-anchor="middle" x="905" y="-38.8" font-family="Microsoft YaHei" font-size="14.00">PlayerController 1</text>
</g>
<!-- nPC1&#45;&#45;nC1PC1 -->
<g id="edge1" class="edge"><title>nPC1&#45;&#45;nC1PC1</title>
<path fill="none" stroke="black" d="M1067.21,-241.455C1033.65,-200.493 952.055,-100.923 919.127,-60.7401"/>
</g>
<!-- nPS1 -->
<g id="node6" class="node"><title>nPS1</title>
<polygon fill="skyblue" stroke="skyblue" points="766.5,-241.5 766.5,-279.5 959.5,-279.5 959.5,-241.5 766.5,-241.5"/>
<text text-anchor="middle" x="863" y="-264.3" font-family="Microsoft YaHei" font-size="14.00">PlayerState 1</text>
<text text-anchor="middle" x="863" y="-249.3" font-family="Microsoft YaHei" font-size="14.00">** Host and ALL clients.**</text>
</g>
<!-- nC1PS1 -->
<g id="node10" class="node"><title>nC1PS1</title>
<polygon fill="skyblue" stroke="skyblue" points="709.5,-24.5 709.5,-60.5 816.5,-60.5 816.5,-24.5 709.5,-24.5"/>
<text text-anchor="middle" x="763" y="-38.8" font-family="Microsoft YaHei" font-size="14.00">PlayerState 1</text>
</g>
<!-- nPS1&#45;&#45;nC1PS1 -->
<g id="edge3" class="edge"><title>nPS1&#45;&#45;nC1PS1</title>
<path fill="none" stroke="black" d="M854.646,-241.455C835.682,-200.493 789.585,-100.923 770.982,-60.7401"/>
</g>
</g>
</svg>
